<svg xmlns="http://www.w3.org/2000/svg" viewBox="0 0 1024 1024" width="24" height="24" fill="none" stroke="currentColor" stroke-width="2">
  <!-- 左上角红色颜料点 -->
  <path d="M224.256 533.504c29.696 0 53.248-24.064 53.248-53.248s-24.064-53.248-53.248-53.248c-29.696 0-53.248 24.064-53.248 53.248-0.512 29.184 23.552 53.248 53.248 53.248z" fill="#A21F24" p-id="5421"></path>
  <!-- 调色板主体：外轮廓 + 4个内部拇指孔 -->
  <path d="M511.488 21.504c-270.336 0-490.496 220.16-490.496 490.496 0 270.848 220.16 490.496 490.496 490.496 54.784 0 97.28-42.496 97.28-97.28 0-25.088-9.216-48.128-26.624-65.536-10.24-10.24-15.36-24.064-15.36-38.912 0-33.792 26.112-59.904 59.904-59.904h94.208c155.136 0 281.088-126.464 281.088-281.6 0.512-241.664-219.136-437.76-490.496-437.76zM224.256 576c-53.248 0-96.256-43.008-96.256-96.256S171.008 384 224.256 384s96.256 43.008 96.256 96.256-43.52 95.744-96.256 95.744z m148.992-213.504c-53.248 0-96.256-43.008-96.256-96.256s43.008-96.256 96.256-96.256S469.504 212.992 469.504 266.24s-43.008 96.256-96.256 96.256z m181.248-95.744c0-53.248 43.008-96.256 96.256-96.256s96.256 43.008 96.256 96.256-43.008 96.256-96.256 96.256-96.256-43.52-96.256-96.256z m245.76 309.248c-53.248 0-96.256-43.008-96.256-96.256S747.008 384 800.256 384 896 427.008 896 480.256s-43.008 95.744-95.744 95.744z" p-id="5422"></path>
  <!-- 顶部黄色颜料点 -->
  <path d="M373.248 320c29.696 0 53.248-24.064 53.248-53.248 0-29.696-24.064-53.248-53.248-53.248-29.696 0-53.248 24.064-53.248 53.248s24.064 53.248 53.248 53.248z" fill="#BCAA14" p-id="5423"></path>
  <!-- 右上角蓝色颜料点 -->
  <path d="M650.752 320c29.696 0 53.248-24.064 53.248-53.248s-24.064-53.248-53.248-53.248c-29.696 0-53.248 24.064-53.248 53.248s23.552 53.248 53.248 53.248z" fill="#55C2E5" p-id="5424"></path>
  <!-- 右侧绿色颜料点 -->
  <path d="M799.744 533.504c29.696 0 53.248-24.064 53.248-53.248 0-29.696-24.064-53.248-53.248-53.248-29.696 0-53.248 24.064-53.248 53.248s24.064 53.248 53.248 53.248z" fill="#4BB242" p-id="5425"></path>
</svg>